<mxfile host="app.diagrams.net" modified="2023-11-28T19:28:36.356Z" agent="Mozilla/5.0 (Windows NT 10.0; Win64; x64) AppleWebKit/537.36 (KHTML, like Gecko) Chrome/118.0.0.0 Safari/537.36 OPR/104.0.0.0" etag="P05ZI4s08FnS1nssvXjW" version="22.1.4" type="github">
  <diagram id="C5RBs43oDa-KdzZeNtuy" name="Page-1">
    <mxGraphModel dx="4831" dy="2789" grid="1" gridSize="10" guides="1" tooltips="1" connect="1" arrows="1" fold="1" page="1" pageScale="1" pageWidth="827" pageHeight="1169" math="0" shadow="0">
      <root>
        <mxCell id="WIyWlLk6GJQsqaUBKTNV-0" />
        <mxCell id="WIyWlLk6GJQsqaUBKTNV-1" parent="WIyWlLk6GJQsqaUBKTNV-0" />
        <mxCell id="GrG6Vne9SYb2Ip2GokzP-0" value="CITY" style="rounded=0;whiteSpace=wrap;html=1;" vertex="1" parent="WIyWlLk6GJQsqaUBKTNV-1">
          <mxGeometry x="10" y="50" width="120" height="60" as="geometry" />
        </mxCell>
        <mxCell id="GrG6Vne9SYb2Ip2GokzP-21" style="edgeStyle=orthogonalEdgeStyle;rounded=0;orthogonalLoop=1;jettySize=auto;html=1;exitX=1;exitY=0.5;exitDx=0;exitDy=0;entryX=0;entryY=0.75;entryDx=0;entryDy=0;" edge="1" parent="WIyWlLk6GJQsqaUBKTNV-1" source="GrG6Vne9SYb2Ip2GokzP-1" target="GrG6Vne9SYb2Ip2GokzP-0">
          <mxGeometry relative="1" as="geometry" />
        </mxCell>
        <mxCell id="GrG6Vne9SYb2Ip2GokzP-1" value="NEIGHBORHOOD&amp;nbsp; char(35)&lt;br&gt;DEFAULT" style="ellipse;whiteSpace=wrap;html=1;" vertex="1" parent="WIyWlLk6GJQsqaUBKTNV-1">
          <mxGeometry x="-330" y="160" width="180" height="50" as="geometry" />
        </mxCell>
        <mxCell id="GrG6Vne9SYb2Ip2GokzP-20" style="edgeStyle=orthogonalEdgeStyle;rounded=0;orthogonalLoop=1;jettySize=auto;html=1;exitX=1;exitY=0.5;exitDx=0;exitDy=0;entryX=0;entryY=0.25;entryDx=0;entryDy=0;" edge="1" parent="WIyWlLk6GJQsqaUBKTNV-1" source="GrG6Vne9SYb2Ip2GokzP-2" target="GrG6Vne9SYb2Ip2GokzP-0">
          <mxGeometry relative="1" as="geometry" />
        </mxCell>
        <mxCell id="GrG6Vne9SYb2Ip2GokzP-2" value="POSTALCODE&amp;nbsp; bigint(10)&lt;br&gt;DEFAULT" style="ellipse;whiteSpace=wrap;html=1;" vertex="1" parent="WIyWlLk6GJQsqaUBKTNV-1">
          <mxGeometry x="-370" y="80" width="180" height="50" as="geometry" />
        </mxCell>
        <mxCell id="GrG6Vne9SYb2Ip2GokzP-19" style="edgeStyle=orthogonalEdgeStyle;rounded=0;orthogonalLoop=1;jettySize=auto;html=1;exitX=1;exitY=0.5;exitDx=0;exitDy=0;entryX=0;entryY=0.5;entryDx=0;entryDy=0;" edge="1" parent="WIyWlLk6GJQsqaUBKTNV-1" source="GrG6Vne9SYb2Ip2GokzP-3" target="GrG6Vne9SYb2Ip2GokzP-0">
          <mxGeometry relative="1" as="geometry" />
        </mxCell>
        <mxCell id="GrG6Vne9SYb2Ip2GokzP-3" value="DIRECTION&amp;nbsp; char(35)&lt;br&gt;DEFAULT" style="ellipse;whiteSpace=wrap;html=1;" vertex="1" parent="WIyWlLk6GJQsqaUBKTNV-1">
          <mxGeometry x="-380" width="180" height="50" as="geometry" />
        </mxCell>
        <mxCell id="GrG6Vne9SYb2Ip2GokzP-18" style="edgeStyle=orthogonalEdgeStyle;rounded=0;orthogonalLoop=1;jettySize=auto;html=1;exitX=1;exitY=1;exitDx=0;exitDy=0;" edge="1" parent="WIyWlLk6GJQsqaUBKTNV-1" source="GrG6Vne9SYb2Ip2GokzP-4">
          <mxGeometry relative="1" as="geometry">
            <mxPoint x="20" y="50" as="targetPoint" />
          </mxGeometry>
        </mxCell>
        <mxCell id="GrG6Vne9SYb2Ip2GokzP-4" value="POPULATION&amp;nbsp; int(20)&lt;br&gt;DEFAULT" style="ellipse;whiteSpace=wrap;html=1;" vertex="1" parent="WIyWlLk6GJQsqaUBKTNV-1">
          <mxGeometry x="-350" y="-70" width="180" height="50" as="geometry" />
        </mxCell>
        <mxCell id="GrG6Vne9SYb2Ip2GokzP-17" style="edgeStyle=orthogonalEdgeStyle;rounded=0;orthogonalLoop=1;jettySize=auto;html=1;exitX=1;exitY=1;exitDx=0;exitDy=0;entryX=0.25;entryY=0;entryDx=0;entryDy=0;" edge="1" parent="WIyWlLk6GJQsqaUBKTNV-1" source="GrG6Vne9SYb2Ip2GokzP-5" target="GrG6Vne9SYb2Ip2GokzP-0">
          <mxGeometry relative="1" as="geometry" />
        </mxCell>
        <mxCell id="GrG6Vne9SYb2Ip2GokzP-5" value="DISTRICT&amp;nbsp; char(20)&lt;br&gt;DEFAULT" style="ellipse;whiteSpace=wrap;html=1;" vertex="1" parent="WIyWlLk6GJQsqaUBKTNV-1">
          <mxGeometry x="-290" y="-140" width="180" height="50" as="geometry" />
        </mxCell>
        <mxCell id="GrG6Vne9SYb2Ip2GokzP-15" style="edgeStyle=orthogonalEdgeStyle;rounded=0;orthogonalLoop=1;jettySize=auto;html=1;exitX=1;exitY=1;exitDx=0;exitDy=0;entryX=0.5;entryY=0;entryDx=0;entryDy=0;" edge="1" parent="WIyWlLk6GJQsqaUBKTNV-1" source="GrG6Vne9SYb2Ip2GokzP-6" target="GrG6Vne9SYb2Ip2GokzP-0">
          <mxGeometry relative="1" as="geometry" />
        </mxCell>
        <mxCell id="GrG6Vne9SYb2Ip2GokzP-6" value="FK&amp;nbsp; COUNTRYCODE char(3)&lt;br&gt;DEFAULT" style="ellipse;whiteSpace=wrap;html=1;" vertex="1" parent="WIyWlLk6GJQsqaUBKTNV-1">
          <mxGeometry x="-180" y="-190" width="180" height="50" as="geometry" />
        </mxCell>
        <mxCell id="GrG6Vne9SYb2Ip2GokzP-14" style="edgeStyle=orthogonalEdgeStyle;rounded=0;orthogonalLoop=1;jettySize=auto;html=1;exitX=0.5;exitY=1;exitDx=0;exitDy=0;entryX=0.75;entryY=0;entryDx=0;entryDy=0;" edge="1" parent="WIyWlLk6GJQsqaUBKTNV-1" source="GrG6Vne9SYb2Ip2GokzP-7" target="GrG6Vne9SYb2Ip2GokzP-0">
          <mxGeometry relative="1" as="geometry" />
        </mxCell>
        <mxCell id="GrG6Vne9SYb2Ip2GokzP-7" value="NAME&amp;nbsp; char(35)&lt;br&gt;DEFAULT" style="ellipse;whiteSpace=wrap;html=1;" vertex="1" parent="WIyWlLk6GJQsqaUBKTNV-1">
          <mxGeometry x="-40" y="-230" width="180" height="50" as="geometry" />
        </mxCell>
        <mxCell id="GrG6Vne9SYb2Ip2GokzP-13" style="edgeStyle=orthogonalEdgeStyle;rounded=0;orthogonalLoop=1;jettySize=auto;html=1;exitX=0.5;exitY=1;exitDx=0;exitDy=0;entryX=1;entryY=0;entryDx=0;entryDy=0;" edge="1" parent="WIyWlLk6GJQsqaUBKTNV-1" source="GrG6Vne9SYb2Ip2GokzP-8" target="GrG6Vne9SYb2Ip2GokzP-0">
          <mxGeometry relative="1" as="geometry" />
        </mxCell>
        <mxCell id="GrG6Vne9SYb2Ip2GokzP-8" value="PK&amp;nbsp; ID&amp;nbsp; int(10)&lt;br&gt;DEFAULT" style="ellipse;whiteSpace=wrap;html=1;" vertex="1" parent="WIyWlLk6GJQsqaUBKTNV-1">
          <mxGeometry x="130" y="-260" width="180" height="50" as="geometry" />
        </mxCell>
        <mxCell id="GrG6Vne9SYb2Ip2GokzP-53" style="edgeStyle=orthogonalEdgeStyle;rounded=0;orthogonalLoop=1;jettySize=auto;html=1;exitX=1;exitY=0.5;exitDx=0;exitDy=0;entryX=0;entryY=0.5;entryDx=0;entryDy=0;" edge="1" parent="WIyWlLk6GJQsqaUBKTNV-1" source="GrG6Vne9SYb2Ip2GokzP-9" target="GrG6Vne9SYb2Ip2GokzP-22">
          <mxGeometry relative="1" as="geometry" />
        </mxCell>
        <mxCell id="GrG6Vne9SYb2Ip2GokzP-9" value="SURFACEAREA&amp;nbsp; decimal(10.2)&lt;br&gt;DEFAULT NULL" style="ellipse;whiteSpace=wrap;html=1;" vertex="1" parent="WIyWlLk6GJQsqaUBKTNV-1">
          <mxGeometry x="-830" y="460" width="220" height="50" as="geometry" />
        </mxCell>
        <mxCell id="GrG6Vne9SYb2Ip2GokzP-22" value="COUNTRY" style="rounded=0;whiteSpace=wrap;html=1;" vertex="1" parent="WIyWlLk6GJQsqaUBKTNV-1">
          <mxGeometry x="60" y="524" width="120" height="60" as="geometry" />
        </mxCell>
        <mxCell id="GrG6Vne9SYb2Ip2GokzP-52" style="edgeStyle=orthogonalEdgeStyle;rounded=0;orthogonalLoop=1;jettySize=auto;html=1;exitX=1;exitY=0.5;exitDx=0;exitDy=0;entryX=0;entryY=0;entryDx=0;entryDy=0;" edge="1" parent="WIyWlLk6GJQsqaUBKTNV-1" source="GrG6Vne9SYb2Ip2GokzP-24" target="GrG6Vne9SYb2Ip2GokzP-22">
          <mxGeometry relative="1" as="geometry" />
        </mxCell>
        <mxCell id="GrG6Vne9SYb2Ip2GokzP-24" value="REGION&amp;nbsp; char(26)&lt;br&gt;NOT DEFAULT" style="ellipse;whiteSpace=wrap;html=1;" vertex="1" parent="WIyWlLk6GJQsqaUBKTNV-1">
          <mxGeometry x="-690" y="400" width="180" height="50" as="geometry" />
        </mxCell>
        <mxCell id="GrG6Vne9SYb2Ip2GokzP-51" style="edgeStyle=orthogonalEdgeStyle;rounded=0;orthogonalLoop=1;jettySize=auto;html=1;exitX=1;exitY=0.5;exitDx=0;exitDy=0;entryX=0.5;entryY=0;entryDx=0;entryDy=0;" edge="1" parent="WIyWlLk6GJQsqaUBKTNV-1" source="GrG6Vne9SYb2Ip2GokzP-26" target="GrG6Vne9SYb2Ip2GokzP-22">
          <mxGeometry relative="1" as="geometry" />
        </mxCell>
        <mxCell id="GrG6Vne9SYb2Ip2GokzP-26" value="CONTINENT&amp;nbsp; enum&lt;br&gt;NOT DEFAULT" style="ellipse;whiteSpace=wrap;html=1;" vertex="1" parent="WIyWlLk6GJQsqaUBKTNV-1">
          <mxGeometry x="-540" y="360" width="180" height="50" as="geometry" />
        </mxCell>
        <mxCell id="GrG6Vne9SYb2Ip2GokzP-50" style="edgeStyle=orthogonalEdgeStyle;rounded=0;orthogonalLoop=1;jettySize=auto;html=1;exitX=1;exitY=0.5;exitDx=0;exitDy=0;entryX=0.75;entryY=0;entryDx=0;entryDy=0;" edge="1" parent="WIyWlLk6GJQsqaUBKTNV-1" source="GrG6Vne9SYb2Ip2GokzP-27" target="GrG6Vne9SYb2Ip2GokzP-22">
          <mxGeometry relative="1" as="geometry" />
        </mxCell>
        <mxCell id="GrG6Vne9SYb2Ip2GokzP-27" value="NAME&amp;nbsp; chat(52)&lt;br&gt;DEFAULT" style="ellipse;whiteSpace=wrap;html=1;" vertex="1" parent="WIyWlLk6GJQsqaUBKTNV-1">
          <mxGeometry x="-413" y="310" width="180" height="50" as="geometry" />
        </mxCell>
        <mxCell id="GrG6Vne9SYb2Ip2GokzP-49" style="edgeStyle=orthogonalEdgeStyle;rounded=0;orthogonalLoop=1;jettySize=auto;html=1;exitX=1;exitY=1;exitDx=0;exitDy=0;entryX=1;entryY=0;entryDx=0;entryDy=0;" edge="1" parent="WIyWlLk6GJQsqaUBKTNV-1" source="GrG6Vne9SYb2Ip2GokzP-28" target="GrG6Vne9SYb2Ip2GokzP-22">
          <mxGeometry relative="1" as="geometry" />
        </mxCell>
        <mxCell id="GrG6Vne9SYb2Ip2GokzP-28" value="PK COUNTRYLANGUAJE&amp;nbsp; char(20)&lt;br&gt;UNIQUE" style="ellipse;whiteSpace=wrap;html=1;" vertex="1" parent="WIyWlLk6GJQsqaUBKTNV-1">
          <mxGeometry x="-280" y="250" width="220" height="70" as="geometry" />
        </mxCell>
        <mxCell id="GrG6Vne9SYb2Ip2GokzP-54" style="edgeStyle=orthogonalEdgeStyle;rounded=0;orthogonalLoop=1;jettySize=auto;html=1;exitX=1;exitY=0.5;exitDx=0;exitDy=0;entryX=0;entryY=0.25;entryDx=0;entryDy=0;" edge="1" parent="WIyWlLk6GJQsqaUBKTNV-1" source="GrG6Vne9SYb2Ip2GokzP-29" target="GrG6Vne9SYb2Ip2GokzP-22">
          <mxGeometry relative="1" as="geometry" />
        </mxCell>
        <mxCell id="GrG6Vne9SYb2Ip2GokzP-29" value="INDEPYEAR&amp;nbsp; smallint(5)" style="ellipse;whiteSpace=wrap;html=1;" vertex="1" parent="WIyWlLk6GJQsqaUBKTNV-1">
          <mxGeometry x="-840" y="520" width="180" height="50" as="geometry" />
        </mxCell>
        <mxCell id="GrG6Vne9SYb2Ip2GokzP-55" style="edgeStyle=orthogonalEdgeStyle;rounded=0;orthogonalLoop=1;jettySize=auto;html=1;exitX=1;exitY=0.5;exitDx=0;exitDy=0;entryX=0;entryY=0.75;entryDx=0;entryDy=0;" edge="1" parent="WIyWlLk6GJQsqaUBKTNV-1" source="GrG6Vne9SYb2Ip2GokzP-30" target="GrG6Vne9SYb2Ip2GokzP-22">
          <mxGeometry relative="1" as="geometry" />
        </mxCell>
        <mxCell id="GrG6Vne9SYb2Ip2GokzP-30" value="POPULATION&amp;nbsp; &amp;nbsp;int(10)&lt;br&gt;NOT DEFAULT" style="ellipse;whiteSpace=wrap;html=1;" vertex="1" parent="WIyWlLk6GJQsqaUBKTNV-1">
          <mxGeometry x="-890" y="584" width="180" height="50" as="geometry" />
        </mxCell>
        <mxCell id="GrG6Vne9SYb2Ip2GokzP-56" style="edgeStyle=orthogonalEdgeStyle;rounded=0;orthogonalLoop=1;jettySize=auto;html=1;exitX=1;exitY=0.5;exitDx=0;exitDy=0;entryX=0.75;entryY=1;entryDx=0;entryDy=0;" edge="1" parent="WIyWlLk6GJQsqaUBKTNV-1" source="GrG6Vne9SYb2Ip2GokzP-31" target="GrG6Vne9SYb2Ip2GokzP-22">
          <mxGeometry relative="1" as="geometry" />
        </mxCell>
        <mxCell id="GrG6Vne9SYb2Ip2GokzP-31" value="LIFEEXPECTANCY&amp;nbsp; decimal(3.1)&lt;br&gt;DEFAULT NULL" style="ellipse;whiteSpace=wrap;html=1;" vertex="1" parent="WIyWlLk6GJQsqaUBKTNV-1">
          <mxGeometry x="-930" y="640" width="180" height="50" as="geometry" />
        </mxCell>
        <mxCell id="GrG6Vne9SYb2Ip2GokzP-62" style="edgeStyle=orthogonalEdgeStyle;rounded=0;orthogonalLoop=1;jettySize=auto;html=1;exitX=1;exitY=0.5;exitDx=0;exitDy=0;entryX=0;entryY=0.75;entryDx=0;entryDy=0;" edge="1" parent="WIyWlLk6GJQsqaUBKTNV-1" source="GrG6Vne9SYb2Ip2GokzP-32" target="GrG6Vne9SYb2Ip2GokzP-22">
          <mxGeometry relative="1" as="geometry" />
        </mxCell>
        <mxCell id="GrG6Vne9SYb2Ip2GokzP-32" value="GNP&amp;nbsp; decimal(10.2)&lt;br&gt;DEFAULT NULL" style="ellipse;whiteSpace=wrap;html=1;" vertex="1" parent="WIyWlLk6GJQsqaUBKTNV-1">
          <mxGeometry x="-960" y="710" width="180" height="50" as="geometry" />
        </mxCell>
        <mxCell id="GrG6Vne9SYb2Ip2GokzP-33" value="GNPPOLD&amp;nbsp; decimal(10.2)&lt;br&gt;DEFUALT NULL" style="ellipse;whiteSpace=wrap;html=1;" vertex="1" parent="WIyWlLk6GJQsqaUBKTNV-1">
          <mxGeometry x="-1007" y="770" width="180" height="50" as="geometry" />
        </mxCell>
        <mxCell id="GrG6Vne9SYb2Ip2GokzP-63" style="edgeStyle=orthogonalEdgeStyle;rounded=0;orthogonalLoop=1;jettySize=auto;html=1;exitX=1;exitY=0.5;exitDx=0;exitDy=0;entryX=0.5;entryY=1;entryDx=0;entryDy=0;" edge="1" parent="WIyWlLk6GJQsqaUBKTNV-1" source="GrG6Vne9SYb2Ip2GokzP-34" target="GrG6Vne9SYb2Ip2GokzP-22">
          <mxGeometry relative="1" as="geometry" />
        </mxCell>
        <mxCell id="GrG6Vne9SYb2Ip2GokzP-34" value="LOCALNAME&amp;nbsp; char(45)&lt;br&gt;NOT DEFAULT" style="ellipse;whiteSpace=wrap;html=1;" vertex="1" parent="WIyWlLk6GJQsqaUBKTNV-1">
          <mxGeometry x="-970" y="830" width="180" height="50" as="geometry" />
        </mxCell>
        <mxCell id="GrG6Vne9SYb2Ip2GokzP-64" style="edgeStyle=orthogonalEdgeStyle;rounded=0;orthogonalLoop=1;jettySize=auto;html=1;exitX=1;exitY=0.5;exitDx=0;exitDy=0;entryX=0;entryY=0.25;entryDx=0;entryDy=0;" edge="1" parent="WIyWlLk6GJQsqaUBKTNV-1" source="GrG6Vne9SYb2Ip2GokzP-35" target="GrG6Vne9SYb2Ip2GokzP-22">
          <mxGeometry relative="1" as="geometry" />
        </mxCell>
        <mxCell id="GrG6Vne9SYb2Ip2GokzP-35" value="GOVERNMENTFORM&amp;nbsp; char(45)&lt;br&gt;NOT DEFAULT" style="ellipse;whiteSpace=wrap;html=1;" vertex="1" parent="WIyWlLk6GJQsqaUBKTNV-1">
          <mxGeometry x="-1000" y="890" width="210" height="50" as="geometry" />
        </mxCell>
        <mxCell id="GrG6Vne9SYb2Ip2GokzP-36" value="HEADOFSTATE&amp;nbsp; char(60)&lt;br&gt;NOT DEFAULT" style="ellipse;whiteSpace=wrap;html=1;" vertex="1" parent="WIyWlLk6GJQsqaUBKTNV-1">
          <mxGeometry x="-920" y="940" width="180" height="50" as="geometry" />
        </mxCell>
        <mxCell id="GrG6Vne9SYb2Ip2GokzP-67" style="edgeStyle=orthogonalEdgeStyle;rounded=0;orthogonalLoop=1;jettySize=auto;html=1;exitX=0.5;exitY=0;exitDx=0;exitDy=0;entryX=0;entryY=1;entryDx=0;entryDy=0;" edge="1" parent="WIyWlLk6GJQsqaUBKTNV-1" source="GrG6Vne9SYb2Ip2GokzP-37" target="GrG6Vne9SYb2Ip2GokzP-22">
          <mxGeometry relative="1" as="geometry" />
        </mxCell>
        <mxCell id="GrG6Vne9SYb2Ip2GokzP-37" value="CAPITAL&amp;nbsp; char(10)&lt;br&gt;&amp;nbsp;NOT DEFAULT" style="ellipse;whiteSpace=wrap;html=1;" vertex="1" parent="WIyWlLk6GJQsqaUBKTNV-1">
          <mxGeometry x="-810" y="1000" width="180" height="50" as="geometry" />
        </mxCell>
        <mxCell id="GrG6Vne9SYb2Ip2GokzP-61" style="edgeStyle=orthogonalEdgeStyle;rounded=0;orthogonalLoop=1;jettySize=auto;html=1;exitX=0.5;exitY=0;exitDx=0;exitDy=0;entryX=0.25;entryY=0;entryDx=0;entryDy=0;" edge="1" parent="WIyWlLk6GJQsqaUBKTNV-1" source="GrG6Vne9SYb2Ip2GokzP-38" target="GrG6Vne9SYb2Ip2GokzP-22">
          <mxGeometry relative="1" as="geometry" />
        </mxCell>
        <mxCell id="GrG6Vne9SYb2Ip2GokzP-65" style="edgeStyle=orthogonalEdgeStyle;rounded=0;orthogonalLoop=1;jettySize=auto;html=1;exitX=1;exitY=0;exitDx=0;exitDy=0;entryX=0;entryY=0.75;entryDx=0;entryDy=0;" edge="1" parent="WIyWlLk6GJQsqaUBKTNV-1" source="GrG6Vne9SYb2Ip2GokzP-38" target="GrG6Vne9SYb2Ip2GokzP-22">
          <mxGeometry relative="1" as="geometry" />
        </mxCell>
        <mxCell id="GrG6Vne9SYb2Ip2GokzP-38" value="CODE2&amp;nbsp; char(2)&lt;br&gt;NOT DEFAULT" style="ellipse;whiteSpace=wrap;html=1;" vertex="1" parent="WIyWlLk6GJQsqaUBKTNV-1">
          <mxGeometry x="-720" y="1050" width="180" height="50" as="geometry" />
        </mxCell>
        <mxCell id="GrG6Vne9SYb2Ip2GokzP-60" style="edgeStyle=orthogonalEdgeStyle;rounded=0;orthogonalLoop=1;jettySize=auto;html=1;exitX=1;exitY=0;exitDx=0;exitDy=0;entryX=0;entryY=1;entryDx=0;entryDy=0;" edge="1" parent="WIyWlLk6GJQsqaUBKTNV-1" source="GrG6Vne9SYb2Ip2GokzP-39" target="GrG6Vne9SYb2Ip2GokzP-22">
          <mxGeometry relative="1" as="geometry" />
        </mxCell>
        <mxCell id="GrG6Vne9SYb2Ip2GokzP-39" value="INFRAESTRUCTURE&amp;nbsp; char(40)&lt;br&gt;NOT DEFAULT" style="ellipse;whiteSpace=wrap;html=1;" vertex="1" parent="WIyWlLk6GJQsqaUBKTNV-1">
          <mxGeometry x="-640" y="1100" width="210" height="50" as="geometry" />
        </mxCell>
        <mxCell id="GrG6Vne9SYb2Ip2GokzP-59" style="edgeStyle=orthogonalEdgeStyle;rounded=0;orthogonalLoop=1;jettySize=auto;html=1;exitX=0.5;exitY=0;exitDx=0;exitDy=0;entryX=1;entryY=1;entryDx=0;entryDy=0;" edge="1" parent="WIyWlLk6GJQsqaUBKTNV-1" source="GrG6Vne9SYb2Ip2GokzP-40" target="GrG6Vne9SYb2Ip2GokzP-22">
          <mxGeometry relative="1" as="geometry" />
        </mxCell>
        <mxCell id="GrG6Vne9SYb2Ip2GokzP-40" value="DEMOGRAPHY&amp;nbsp; char(40)&lt;br&gt;NOT DEFAULT" style="ellipse;whiteSpace=wrap;html=1;" vertex="1" parent="WIyWlLk6GJQsqaUBKTNV-1">
          <mxGeometry x="-460" y="1130" width="180" height="50" as="geometry" />
        </mxCell>
        <mxCell id="GrG6Vne9SYb2Ip2GokzP-58" style="edgeStyle=orthogonalEdgeStyle;rounded=0;orthogonalLoop=1;jettySize=auto;html=1;exitX=0.5;exitY=0;exitDx=0;exitDy=0;entryX=0.25;entryY=1;entryDx=0;entryDy=0;" edge="1" parent="WIyWlLk6GJQsqaUBKTNV-1" source="GrG6Vne9SYb2Ip2GokzP-41" target="GrG6Vne9SYb2Ip2GokzP-22">
          <mxGeometry relative="1" as="geometry" />
        </mxCell>
        <mxCell id="GrG6Vne9SYb2Ip2GokzP-41" value="CULTURE&amp;nbsp; char(40)&lt;br&gt;NOT DEFAULT" style="ellipse;whiteSpace=wrap;html=1;" vertex="1" parent="WIyWlLk6GJQsqaUBKTNV-1">
          <mxGeometry x="-340" y="1180" width="180" height="50" as="geometry" />
        </mxCell>
        <mxCell id="GrG6Vne9SYb2Ip2GokzP-57" style="edgeStyle=orthogonalEdgeStyle;rounded=0;orthogonalLoop=1;jettySize=auto;html=1;exitX=0.5;exitY=0;exitDx=0;exitDy=0;entryX=0.5;entryY=1;entryDx=0;entryDy=0;" edge="1" parent="WIyWlLk6GJQsqaUBKTNV-1" source="GrG6Vne9SYb2Ip2GokzP-42" target="GrG6Vne9SYb2Ip2GokzP-22">
          <mxGeometry relative="1" as="geometry" />
        </mxCell>
        <mxCell id="GrG6Vne9SYb2Ip2GokzP-42" value="FK&amp;nbsp; ID_IBFK_2&amp;nbsp; int(10)&lt;br&gt;NOT DEFAULT" style="ellipse;whiteSpace=wrap;html=1;" vertex="1" parent="WIyWlLk6GJQsqaUBKTNV-1">
          <mxGeometry x="-160" y="1220" width="180" height="50" as="geometry" />
        </mxCell>
        <mxCell id="GrG6Vne9SYb2Ip2GokzP-47" style="edgeStyle=orthogonalEdgeStyle;rounded=0;orthogonalLoop=1;jettySize=auto;html=1;exitX=0.5;exitY=1;exitDx=0;exitDy=0;" edge="1" parent="WIyWlLk6GJQsqaUBKTNV-1" source="GrG6Vne9SYb2Ip2GokzP-27" target="GrG6Vne9SYb2Ip2GokzP-27">
          <mxGeometry relative="1" as="geometry" />
        </mxCell>
        <mxCell id="GrG6Vne9SYb2Ip2GokzP-68" value="CITY" style="rounded=0;whiteSpace=wrap;html=1;" vertex="1" parent="WIyWlLk6GJQsqaUBKTNV-1">
          <mxGeometry x="570" y="230" width="120" height="60" as="geometry" />
        </mxCell>
        <mxCell id="GrG6Vne9SYb2Ip2GokzP-80" style="edgeStyle=orthogonalEdgeStyle;rounded=0;orthogonalLoop=1;jettySize=auto;html=1;exitX=0;exitY=0.5;exitDx=0;exitDy=0;entryX=0.5;entryY=0;entryDx=0;entryDy=0;" edge="1" parent="WIyWlLk6GJQsqaUBKTNV-1" source="GrG6Vne9SYb2Ip2GokzP-69" target="GrG6Vne9SYb2Ip2GokzP-68">
          <mxGeometry relative="1" as="geometry" />
        </mxCell>
        <mxCell id="GrG6Vne9SYb2Ip2GokzP-69" value="PK&amp;nbsp; &amp;nbsp;COUNTRYCODE&amp;nbsp; &amp;nbsp;char(3)&lt;br&gt;UNIQUE" style="ellipse;whiteSpace=wrap;html=1;" vertex="1" parent="WIyWlLk6GJQsqaUBKTNV-1">
          <mxGeometry x="800" y="-230" width="207" height="50" as="geometry" />
        </mxCell>
        <mxCell id="GrG6Vne9SYb2Ip2GokzP-85" style="edgeStyle=orthogonalEdgeStyle;rounded=0;orthogonalLoop=1;jettySize=auto;html=1;exitX=0;exitY=0.5;exitDx=0;exitDy=0;entryX=1;entryY=0.75;entryDx=0;entryDy=0;" edge="1" parent="WIyWlLk6GJQsqaUBKTNV-1" source="GrG6Vne9SYb2Ip2GokzP-70" target="GrG6Vne9SYb2Ip2GokzP-68">
          <mxGeometry relative="1" as="geometry" />
        </mxCell>
        <mxCell id="GrG6Vne9SYb2Ip2GokzP-70" value="DIALECTS&amp;nbsp; char(20)&lt;br&gt;NOT DEFAULT" style="ellipse;whiteSpace=wrap;html=1;" vertex="1" parent="WIyWlLk6GJQsqaUBKTNV-1">
          <mxGeometry x="1270" y="360" width="180" height="50" as="geometry" />
        </mxCell>
        <mxCell id="GrG6Vne9SYb2Ip2GokzP-84" style="edgeStyle=orthogonalEdgeStyle;rounded=0;orthogonalLoop=1;jettySize=auto;html=1;exitX=0;exitY=0.5;exitDx=0;exitDy=0;entryX=1;entryY=0;entryDx=0;entryDy=0;" edge="1" parent="WIyWlLk6GJQsqaUBKTNV-1" source="GrG6Vne9SYb2Ip2GokzP-71" target="GrG6Vne9SYb2Ip2GokzP-68">
          <mxGeometry relative="1" as="geometry" />
        </mxCell>
        <mxCell id="GrG6Vne9SYb2Ip2GokzP-71" value="VARIATIONS&amp;nbsp; char(20)&lt;br&gt;NOT DEFAULT" style="ellipse;whiteSpace=wrap;html=1;" vertex="1" parent="WIyWlLk6GJQsqaUBKTNV-1">
          <mxGeometry x="1260" y="250" width="180" height="50" as="geometry" />
        </mxCell>
        <mxCell id="GrG6Vne9SYb2Ip2GokzP-83" style="edgeStyle=orthogonalEdgeStyle;rounded=0;orthogonalLoop=1;jettySize=auto;html=1;exitX=0;exitY=0.5;exitDx=0;exitDy=0;entryX=1;entryY=0.5;entryDx=0;entryDy=0;" edge="1" parent="WIyWlLk6GJQsqaUBKTNV-1" source="GrG6Vne9SYb2Ip2GokzP-72" target="GrG6Vne9SYb2Ip2GokzP-68">
          <mxGeometry relative="1" as="geometry" />
        </mxCell>
        <mxCell id="GrG6Vne9SYb2Ip2GokzP-72" value="PERCENAGE&amp;nbsp; decimal(4.1)&lt;br&gt;DEFAULT NULL" style="ellipse;whiteSpace=wrap;html=1;" vertex="1" parent="WIyWlLk6GJQsqaUBKTNV-1">
          <mxGeometry x="1240" y="130" width="180" height="50" as="geometry" />
        </mxCell>
        <mxCell id="GrG6Vne9SYb2Ip2GokzP-81" style="edgeStyle=orthogonalEdgeStyle;rounded=0;orthogonalLoop=1;jettySize=auto;html=1;exitX=0;exitY=0.5;exitDx=0;exitDy=0;entryX=0.75;entryY=0;entryDx=0;entryDy=0;" edge="1" parent="WIyWlLk6GJQsqaUBKTNV-1" source="GrG6Vne9SYb2Ip2GokzP-73" target="GrG6Vne9SYb2Ip2GokzP-68">
          <mxGeometry relative="1" as="geometry" />
        </mxCell>
        <mxCell id="GrG6Vne9SYb2Ip2GokzP-73" value="LANGUAJE&amp;nbsp; char(30)&lt;br&gt;NOT DEFAULT" style="ellipse;whiteSpace=wrap;html=1;" vertex="1" parent="WIyWlLk6GJQsqaUBKTNV-1">
          <mxGeometry x="1000" y="-160" width="180" height="50" as="geometry" />
        </mxCell>
        <mxCell id="GrG6Vne9SYb2Ip2GokzP-82" style="edgeStyle=orthogonalEdgeStyle;rounded=0;orthogonalLoop=1;jettySize=auto;html=1;exitX=0;exitY=0.5;exitDx=0;exitDy=0;entryX=0.25;entryY=0;entryDx=0;entryDy=0;" edge="1" parent="WIyWlLk6GJQsqaUBKTNV-1" source="GrG6Vne9SYb2Ip2GokzP-74" target="GrG6Vne9SYb2Ip2GokzP-68">
          <mxGeometry relative="1" as="geometry" />
        </mxCell>
        <mxCell id="GrG6Vne9SYb2Ip2GokzP-74" value="ISOFICIAL&amp;nbsp; ENUMTF&lt;br&gt;NOT DEFAULT" style="ellipse;whiteSpace=wrap;html=1;" vertex="1" parent="WIyWlLk6GJQsqaUBKTNV-1">
          <mxGeometry x="1130" y="10" width="180" height="50" as="geometry" />
        </mxCell>
        <mxCell id="GrG6Vne9SYb2Ip2GokzP-86" style="edgeStyle=orthogonalEdgeStyle;rounded=0;orthogonalLoop=1;jettySize=auto;html=1;exitX=0;exitY=0.5;exitDx=0;exitDy=0;entryX=0.75;entryY=1;entryDx=0;entryDy=0;" edge="1" parent="WIyWlLk6GJQsqaUBKTNV-1" source="GrG6Vne9SYb2Ip2GokzP-75" target="GrG6Vne9SYb2Ip2GokzP-68">
          <mxGeometry relative="1" as="geometry" />
        </mxCell>
        <mxCell id="GrG6Vne9SYb2Ip2GokzP-75" value="PORPHOLOGY&amp;nbsp; char(20)&lt;br&gt;NOT DEFAULT" style="ellipse;whiteSpace=wrap;html=1;" vertex="1" parent="WIyWlLk6GJQsqaUBKTNV-1">
          <mxGeometry x="1160" y="460" width="180" height="50" as="geometry" />
        </mxCell>
        <mxCell id="GrG6Vne9SYb2Ip2GokzP-87" style="edgeStyle=orthogonalEdgeStyle;rounded=0;orthogonalLoop=1;jettySize=auto;html=1;exitX=0;exitY=0;exitDx=0;exitDy=0;entryX=0.25;entryY=1;entryDx=0;entryDy=0;" edge="1" parent="WIyWlLk6GJQsqaUBKTNV-1" source="GrG6Vne9SYb2Ip2GokzP-76" target="GrG6Vne9SYb2Ip2GokzP-68">
          <mxGeometry relative="1" as="geometry" />
        </mxCell>
        <mxCell id="GrG6Vne9SYb2Ip2GokzP-76" value="FK&amp;nbsp; &amp;nbsp;COUNTRYLANGUAJE&amp;nbsp; char(20)&lt;br&gt;NOT DEFAULT" style="ellipse;whiteSpace=wrap;html=1;" vertex="1" parent="WIyWlLk6GJQsqaUBKTNV-1">
          <mxGeometry x="970" y="550" width="250" height="50" as="geometry" />
        </mxCell>
        <mxCell id="GrG6Vne9SYb2Ip2GokzP-89" value="" style="endArrow=none;html=1;rounded=0;exitX=1;exitY=0.5;exitDx=0;exitDy=0;entryX=0;entryY=0.25;entryDx=0;entryDy=0;" edge="1" parent="WIyWlLk6GJQsqaUBKTNV-1" source="GrG6Vne9SYb2Ip2GokzP-0" target="GrG6Vne9SYb2Ip2GokzP-68">
          <mxGeometry width="50" height="50" relative="1" as="geometry">
            <mxPoint x="330" y="210" as="sourcePoint" />
            <mxPoint x="380" y="160" as="targetPoint" />
          </mxGeometry>
        </mxCell>
        <mxCell id="GrG6Vne9SYb2Ip2GokzP-90" value="" style="endArrow=none;html=1;rounded=0;exitX=0.75;exitY=1;exitDx=0;exitDy=0;entryX=1;entryY=0.5;entryDx=0;entryDy=0;" edge="1" parent="WIyWlLk6GJQsqaUBKTNV-1" source="GrG6Vne9SYb2Ip2GokzP-0" target="GrG6Vne9SYb2Ip2GokzP-22">
          <mxGeometry width="50" height="50" relative="1" as="geometry">
            <mxPoint x="70" y="220" as="sourcePoint" />
            <mxPoint x="510" y="385" as="targetPoint" />
          </mxGeometry>
        </mxCell>
        <mxCell id="GrG6Vne9SYb2Ip2GokzP-91" value="" style="endArrow=none;html=1;rounded=0;entryX=0;entryY=1;entryDx=0;entryDy=0;exitX=1;exitY=0.75;exitDx=0;exitDy=0;" edge="1" parent="WIyWlLk6GJQsqaUBKTNV-1" source="GrG6Vne9SYb2Ip2GokzP-22" target="GrG6Vne9SYb2Ip2GokzP-68">
          <mxGeometry width="50" height="50" relative="1" as="geometry">
            <mxPoint x="210" y="550" as="sourcePoint" />
            <mxPoint x="590" y="265" as="targetPoint" />
          </mxGeometry>
        </mxCell>
      </root>
    </mxGraphModel>
  </diagram>
</mxfile>
